<svg xmlns="http://www.w3.org/2000/svg" width="113" height="159" viewBox="0 0 160 220"><path d="M80 212 C82 168 78 130 82 96 C84 80 86 70 88 62" fill="none" stroke="#40794C" stroke-width="2.2"/><path d="M80 150 C68 144 56 146 47 154 C58 159 71 158 80 150 Z" fill="#40794C" stroke="#2A2118" stroke-width="1.4"/><path d="M83 116 C94 110 106 112 114 120 C103 125 91 124 83 116 Z" fill="#40794C" stroke="#2A2118" stroke-width="1.4"/><rect x="52" y="18" width="74" height="50" rx="6" transform="rotate(-6 52 18)" fill="#7B559E" stroke="#2A2118" stroke-width="1.6"/><path d="M54 24 L88 52 L122 16" fill="none" stroke="#2A2118" stroke-width="1.5"/><path d="M52 62 L76 40" fill="none" stroke="#2A2118" stroke-width="1.1"/><path d="M124 56 L100 36" fill="none" stroke="#2A2118" stroke-width="1.1"/><path d="M58 17 C62 10 69 6 76 6" fill="none" stroke="#40794C" stroke-width="1.8"/><circle cx="79" cy="7" r="4.5" fill="#E7A42A" stroke="#2A2118" stroke-width="1.1"/></svg>
